Inverse Dynamics Generalized Forces
version=1
nRows=15
nColumns=34
inDegrees=no
endheader 
time	pelvis_tilt_moment	pelvis_list_moment	pelvis_rotation_moment	pelvis_tx_force	pelvis_ty_force	pelvis_tz_force	hip_flexion_l_moment	hip_adduction_l_moment	hip_rotation_l_moment	hip_flexion_r_moment	hip_adduction_r_moment	hip_rotation_r_moment	knee_angle_l_moment	knee_angle_r_moment	ankle_angle_l_moment	ankle_angle_r_moment	subtalar_angle_l_moment	subtalar_angle_r_moment	mtp_angle_l_moment	mtp_angle_r_moment	lumbar_extension_moment	lumbar_bending_moment	lumbar_rotation_moment	arm_flex_l_moment	arm_add_l_moment	arm_rot_l_moment	arm_flex_r_moment	arm_add_r_moment	arm_rot_r_moment	elbow_flex_l_moment	elbow_flex_r_moment	pro_sup_l_moment	pro_sup_r_moment	
          1.72000000	          0.00000013	         -0.00000026	          0.00000000	          0.00000034	          0.00000286	          0.00000015	        -31.08000004	         22.69679540	         -0.17594227	         38.20052162	         26.06078977	          0.93536689	         28.30376211	         -4.94815844	        -33.27972214	        -44.49518630	         12.79230487	          9.60790705	          5.64018629	         10.96642470	          2.45241952	          3.69537605	         -1.65620980	         -0.39889079	         -0.68640654	         -0.03884310	         -0.16256312	         -1.76987719	         -0.18245487	          0.51593250	          0.54142148	         -0.00694657	         -0.01557739	
          1.73000000	         -0.00000013	         -0.00000028	          0.00000000	          0.00000012	          0.00000289	          0.00000014	        -32.94622239	         24.99578306	         -0.16718549	         41.72059763	         29.40010841	          0.47636836	         29.21745186	         -9.05013191	        -31.97319520	        -44.57895643	         12.65087998	          9.42862553	          5.38677189	         11.25753378	          1.76995241	         -0.16206782	         -1.92631171	         -0.21109864	         -0.49131913	         -0.02162648	         -0.11190245	         -1.82606949	         -0.19574032	          0.56507396	          0.52725308	         -0.00626116	         -0.01664676	
          1.74000000	         -0.00000031	         -0.00000028	         -0.00000002	         -0.00000016	          0.00000283	          0.00000023	        -33.68818330	         26.93500955	         -0.14211573	         43.55984719	         32.95862552	         -0.18136188	         29.60992514	        -12.90535553	        -30.77069282	        -43.36225963	         12.50739763	          9.09077713	          5.15528273	         11.23845202	          1.52190010	         -3.55297903	         -1.69512780	         -0.05594388	         -0.31205025	         -0.00897197	          0.01478658	         -1.84519359	         -0.20806562	          0.60058168	          0.52888729	         -0.00584913	         -0.01789415	
          1.75000000	         -0.00000044	         -0.00000024	         -0.00000002	         -0.00000026	          0.00000274	          0.00000017	        -32.71113630	         28.19241421	         -0.11762670	         42.89208383	         36.13457473	         -0.94666775	         29.17181342	        -15.86749142	        -29.71081902	        -41.28044025	         12.42128267	          8.74804778	          4.95588791	         10.94227389	          1.94222927	         -6.31401240	         -0.99808835	          0.05450508	         -0.15660211	         -0.00422791	          0.20469052	         -1.85023987	         -0.21579726	          0.62545133	          0.54697540	         -0.00641743	         -0.01819786	
          1.76000000	         -0.00000044	         -0.00000029	         -0.00000002	         -0.00000037	          0.00000263	          0.00000027	        -30.08288832	         28.69111738	         -0.08273538	         40.13249122	         39.28588559	         -1.78961458	         27.90453951	        -17.84160135	        -28.83131985	        -38.74904242	         12.37551446	          8.55394749	          4.79342020	         10.42357982	          2.77155013	         -8.96126378	          0.15834295	          0.07489108	         -0.02007363	         -0.00159263	          0.49649556	         -1.86355077	         -0.22727310	          0.63191590	          0.59158026	         -0.00723000	         -0.01853163	
          1.77000000	         -0.00000053	         -0.00000048	          0.00000002	         -0.00000035	          0.00000267	          0.00000030	        -26.10439275	         28.94040842	         -0.00586891	         35.60350431	         41.60927684	         -2.59820631	         26.09335236	        -18.91289953	        -28.23648162	        -36.04370334	         12.52038874	          8.53451711	          4.68491531	          9.75016231	          3.97993672	        -10.39408364	          1.70171479	          0.00783705	          0.03164001	         -0.01218559	          0.78281545	         -1.85005404	         -0.22249588	          0.61130381	          0.64503065	         -0.00949382	         -0.01636506	
          1.78000000	         -0.00000056	         -0.00000048	         -0.00000002	         -0.00000055	          0.00000256	          0.00000057	        -21.44694164	         29.50065269	          0.20027798	         30.37698659	         44.04343534	         -3.37822653	         24.10756030	        -19.26393725	        -28.00417849	        -33.28736697	         12.98077809	          8.70823829	          4.64120472	          8.99248579	          5.21763661	        -10.92412792	          3.56405011	         -0.16404231	          0.02507880	         -0.02676233	          1.10017571	         -1.82161010	         -0.21249901	          0.56267069	          0.71570603	         -0.01195027	         -0.01347966	
          1.79000000	         -0.00000060	         -0.00000053	          0.00000002	         -0.00000047	          0.00000254	          0.00000042	        -17.84498501	         29.75215913	          0.35762253	         25.69493813	         45.88695948	         -4.06574087	         22.80661388	        -19.41649674	        -28.29276073	        -30.60158748	         13.51521178	          9.01812640	          4.67431248	          8.21065616	          6.88829786	        -10.27427684	          5.22681711	         -0.30805922	         -0.09790294	         -0.05674035	          1.32000294	         -1.72538219	         -0.18409781	          0.51193810	          0.78856534	         -0.01577361	         -0.00882786	
          1.80000000	         -0.00000060	         -0.00000053	          0.00000000	         -0.00000059	          0.00000248	          0.00000066	        -15.92598101	         30.23311645	          0.54443515	         23.11998231	         47.46904319	         -4.78026001	         22.46954799	        -20.13450357	        -29.12459424	        -27.94836726	         14.26198677	          9.40860580	          4.78235862	          7.41368215	          8.16664104	         -8.37828859	          6.62444082	         -0.51116796	         -0.27015968	         -0.08284282	          1.43383750	         -1.59369613	         -0.14740208	          0.44279030	          0.85229170	         -0.01847402	         -0.00406592	
          1.81000000	         -0.00000047	         -0.00000048	          0.00000003	         -0.00000048	          0.00000250	          0.00000050	        -16.74389968	         30.64107931	          0.69838412	         22.02135381	         48.95769573	         -5.38482204	         23.77021856	        -20.82860686	        -30.62471354	        -25.61336377	         15.14012393	          9.91688475	          4.97194279	          6.70755114	         10.57557392	         -5.90520420	          7.41322794	         -0.51474547	         -0.36615554	         -0.10802609	          1.47861622	         -1.54611200	         -0.12510047	          0.45621936	          0.90299833	         -0.02163230	         -0.00090926	
          1.82000000	         -0.00000035	         -0.00000059	          0.00000005	         -0.00000044	          0.00000263	          0.00000060	        -19.17390157	         31.73491555	          1.00966374	         23.76913129	         50.60029815	         -6.04857957	         26.00162434	        -22.44145930	        -32.60709506	        -23.28180680	         16.27411244	         10.47408853	          5.22910440	          6.00825911	         11.78763640	         -2.27286468	          8.06083741	         -0.74158389	         -0.52605703	         -0.11603891	          1.42549061	         -1.39342256	         -0.09050810	          0.39697190	          0.95416763	         -0.02146696	          0.00172406	
          1.83000000	         -0.00000040	         -0.00000056	          0.00000000	         -0.00000036	          0.00000285	          0.00000069	        -24.17101041	         31.86905080	          1.25625733	         26.48363100	         52.26303877	         -6.53920990	         29.44733038	        -23.55508811	        -34.89033299	        -21.37313474	         17.20518383	         11.09398355	          5.51061133	          5.43706966	         14.32811809	          0.93406762	          7.91906914	         -0.67569092	         -0.52897110	         -0.11727253	          1.38617850	         -1.35611896	         -0.08821536	          0.46083407	          1.00577616	         -0.02163824	          0.00064436	
          1.84000000	         -0.00000057	         -0.00000068	          0.00000006	         -0.00000043	          0.00000283	          0.00000067	        -29.49247157	         34.04620341	          1.86403312	         31.24620705	         53.50413028	         -7.03141397	         33.42479790	        -25.45596461	        -37.31493030	        -19.42201266	         18.72734699	         11.71441418	          5.80677392	          4.84906615	         15.18458193	          6.29949403	          8.26415961	         -0.91546357	         -0.80037954	         -0.12708852	          1.30098859	         -1.01734409	         -0.04061462	          0.38237515	          1.09377949	         -0.02053308	          0.00205367	
          1.85000000	         -0.00000053	         -0.00000078	          0.00000004	         -0.00000066	          0.00000307	          0.00000093	        -35.89094860	         29.51463400	          2.31949719	         36.63074765	         54.19219214	         -7.11725690	         36.54321596	        -26.95152358	        -39.16202410	        -17.74071901	         18.98448309	         12.17236080	          6.03022073	          4.34543807	         16.05686092	          6.44105542	          7.06832852	         -0.94877836	         -0.35751457	         -0.05108587	          0.96900325	         -1.36202476	         -0.08276081	          0.49279902	          0.98101077	         -0.01351818	         -0.00264678	
          1.86000000	         -0.00000035	         -0.00000088	          0.00000009	         -0.00000056	          0.00000317	          0.00000083	        -42.48223171	         32.62315606	          3.23541786	         42.72658413	         55.77397041	         -7.23956046	         40.97808057	        -28.52802745	        -40.99354637	        -16.01298500	         20.22120094	         12.43777966	          6.23188115	          3.83230762	         16.23729179	         11.64291223	          7.08625299	         -1.09849149	         -0.47626665	         -0.04410480	          0.75017100	         -1.11258147	         -0.04172670	          0.46083388	          0.99523196	         -0.01136629	         -0.00172685	
